<svg id="Layer_1" viewBox="0 0 512 512" xmlns="http://www.w3.org/2000/svg" data-name="Layer 1"><path d="m222.233 324.652 51.458-27.358-43.777-30.412zm152.411-273.217 50.456 35.055 11-15.826a16.027 16.027 0 0 0 -4.017-22.278l-24.17-16.786a16.027 16.027 0 0 0 -22.278 4.017zm-13.2-9.173 2.722 1.891 10.994-15.827a28.884 28.884 0 0 1 40.044-7.21l24.17 16.79a28.885 28.885 0 0 1 7.21 40.044l-10.997 15.822 2.725 1.894a6.382 6.382 0 0 1 1.6 8.883l-18.127 26.093a6.382 6.382 0 0 1 -8.883 1.6l-2.721-1.891-37.181 53.51v274.509a37.712 37.712 0 0 1 -37.619 37.618h-237.446a37.711 37.711 0 0 1 -37.618-37.618v-297.153a37.712 37.712 0 0 1 37.618-37.617h211.034l29.782-42.87-2.725-1.894a6.382 6.382 0 0 1 -1.6-8.883l18.127-26.093a6.382 6.382 0 0 1 8.883-1.6zm64.348 60.244-10.845 15.611-66.395-46.117 10.848-15.615 66.391 46.121zm-171.94 165.464-19.989-13.886 115.371-166.073 19.989 13.889zm125.854-158.79 19.994 13.886-115.376 166.073-19.989-13.887zm-213.271 103.633h48.333a6.388 6.388 0 0 0 0-12.776h-48.333a6.388 6.388 0 0 0 0 12.776zm-47.3 0h26.186a6.388 6.388 0 0 0 0-12.776h-26.188a6.388 6.388 0 1 0 0 12.776zm0 43.227h76.061a6.388 6.388 0 1 0 0-12.776h-76.063a6.388 6.388 0 1 0 0 12.776zm0 43.227h67.865a6.388 6.388 0 1 0 0-12.775h-67.867a6.388 6.388 0 1 0 0 12.775zm69.265 43.233h25.89a6.365 6.365 0 0 0 3.192-.853l71.437-37.983 1.626-1.233 69.684-100.175v256.114a24.932 24.932 0 0 1 -24.843 24.842h-237.451a24.931 24.931 0 0 1 -24.842-24.842v-297.153a24.931 24.931 0 0 1 24.842-24.842h202.159l-80.353 115.666a6.345 6.345 0 0 0 -1.131 3.256l-9.9 74.422h-20.31a6.388 6.388 0 0 0 0 12.776zm-69.265 0h51.278a6.388 6.388 0 0 0 0-12.776h-51.28a6.388 6.388 0 1 0 0 12.776zm60.156 43.228h134.9a6.388 6.388 0 1 0 0-12.776h-134.9a6.388 6.388 0 1 0 0 12.776zm-60.156 0h27.513a6.388 6.388 0 0 0 0-12.776h-27.515a6.388 6.388 0 1 0 0 12.776zm102.317 43.222h92.735a6.388 6.388 0 0 0 0-12.776h-92.735a6.388 6.388 0 1 0 0 12.776zm-102.319 0h64.916a6.388 6.388 0 1 0 0-12.776h-64.916a6.388 6.388 0 1 0 0 12.776z" fill-rule="evenodd"/></svg>