<?xml version="1.0" encoding="UTF-8" standalone="no"?>
<!-- Created with Inkscape (http://www.inkscape.org/) -->

<svg
   version="1.1"
   id="svg2115"
   xml:space="preserve"
   width="682.66669"
   height="682.66669"
   viewBox="0 0 682.66669 682.66669"
   xmlns="http://www.w3.org/2000/svg"
   xmlns:svg="http://www.w3.org/2000/svg"><defs
     id="defs2119"><clipPath
       clipPathUnits="userSpaceOnUse"
       id="clipPath2145"><path
         d="M 0,512 H 512 V 0 H 0 Z"
         id="path2143" /></clipPath></defs><g
     id="g2121"
     transform="matrix(1.3333333,0,0,-1.3333333,0,682.66667)"><g
       id="g2123"
       transform="translate(411.9556,287.2427)"><path
         d="M 0,0 -208.82,-208.82"
         style="fill:none;stroke:#000000;stroke-width:15;stroke-linecap:round;stroke-linejoin:round;stroke-miterlimit:10;stroke-dasharray:none;stroke-opacity:1"
         id="path2125" /></g><g
       id="g2127"
       transform="translate(132.2134,452.6504)"><path
         d="M 0,0 H 102.577"
         style="fill:none;stroke:#000000;stroke-width:15;stroke-linecap:round;stroke-linejoin:round;stroke-miterlimit:10;stroke-dasharray:none;stroke-opacity:1"
         id="path2129" /></g><g
       id="g2131"
       transform="translate(58.0649,409.8857)"><path
         d="M 0,0 H 176.726"
         style="fill:none;stroke:#000000;stroke-width:15;stroke-linecap:round;stroke-linejoin:round;stroke-miterlimit:10;stroke-dasharray:none;stroke-opacity:1"
         id="path2133" /></g><g
       id="g2135"
       transform="translate(58.0649,367.1211)"><path
         d="M 0,0 H 176.726"
         style="fill:none;stroke:#000000;stroke-width:15;stroke-linecap:round;stroke-linejoin:round;stroke-miterlimit:10;stroke-dasharray:none;stroke-opacity:1"
         id="path2137" /></g><g
       id="g2139"><g
         id="g2141"
         clip-path="url(#clipPath2145)"><g
           id="g2147"
           transform="translate(7.936,427.4229)"><path
             d="m 0,0 v 37.957 c 0,21.606 17.515,39.12 39.12,39.12 h 198.743 c 21.606,0 39.121,-17.514 39.121,-39.12 V -83.439 c 0,-21.605 -17.515,-39.12 -39.121,-39.12 -2.31,0 -3.935,-2.273 -3.188,-4.459 l 14.85,-43.484 c 0.652,-1.909 -1.548,-3.517 -3.169,-2.316 l -65.041,48.203 c -1.801,1.335 -3.983,2.056 -6.226,2.056 H 39.12 c -21.605,0 -39.12,17.515 -39.12,39.12 v 48.365"
             style="fill:none;stroke:#000000;stroke-width:15;stroke-linecap:round;stroke-linejoin:round;stroke-miterlimit:10;stroke-dasharray:none;stroke-opacity:1"
             id="path2149" /></g><g
           id="g2151"
           transform="translate(386.519,204.5903)"><path
             d="m 0,0 -154.775,-154.775 c -7.804,-7.804 -17.155,-13.885 -27.453,-17.853 l -62.181,-23.959 c -5.879,-2.266 -11.659,3.514 -9.394,9.394 l 23.96,62.181 c 3.968,10.297 10.049,19.649 17.852,27.452 l 260.47,260.471 c 15.8,15.799 41.417,15.799 57.216,0 15.8,-15.8 15.8,-41.416 0,-57.216 L 24.801,24.801"
             style="fill:none;stroke:#000000;stroke-width:15;stroke-linecap:round;stroke-linejoin:round;stroke-miterlimit:10;stroke-dasharray:none;stroke-opacity:1"
             id="path2153" /></g><g
           id="g2155"
           transform="translate(464.2979,282.3691)"><path
             d="M 0,0 -57.216,57.216"
             style="fill:none;stroke:#000000;stroke-width:15;stroke-linecap:round;stroke-linejoin:round;stroke-miterlimit:10;stroke-dasharray:none;stroke-opacity:1"
             id="path2157" /></g><g
           id="g2159"
           transform="translate(383.3477,315.8506)"><path
             d="M 0,0 57.216,-57.216"
             style="fill:none;stroke:#000000;stroke-width:15;stroke-linecap:round;stroke-linejoin:round;stroke-miterlimit:10;stroke-dasharray:none;stroke-opacity:1"
             id="path2161" /></g><g
           id="g2163"
           transform="translate(174.5278,107.0308)"><path
             d="M 0,0 57.216,-57.216"
             style="fill:none;stroke:#000000;stroke-width:15;stroke-linecap:round;stroke-linejoin:round;stroke-miterlimit:10;stroke-dasharray:none;stroke-opacity:1"
             id="path2165" /></g><g
           id="g2167"
           transform="translate(184.6147,24.3809)"><path
             d="M 0,0 -35.521,35.521"
             style="fill:none;stroke:#000000;stroke-width:15;stroke-linecap:round;stroke-linejoin:round;stroke-miterlimit:10;stroke-dasharray:none;stroke-opacity:1"
             id="path2169" /></g></g></g></g></svg>
