<?xml version="1.0"?>
<svg xmlns="http://www.w3.org/2000/svg" id="Line" viewBox="0 0 64 64"><path d="M58.68146,19.47A2.96771,2.96771,0,0,0,55.766,19.2263L44.99968,25.28949v-3.2893a5.00578,5.00578,0,0,0-4.99988-4.99991H13.00047v-3.85a5.00578,5.00578,0,0,1,4.99988-4.9999H25.184A3.0087,3.0087,0,0,0,28.01377,10.164h9.97241a3.01376,3.01376,0,0,0,.041-6.02723l-9.9724-.13623A2.9825,2.9825,0,0,0,25.14032,6.1504l-7.14,0a7.00771,7.00771,0,0,0-6.99983,6.99987v3.85H9.00057A5.00578,5.00578,0,0,0,4.0007,22.00019v15.9997a5.00577,5.00577,0,0,0,4.99987,4.9999H22.92448L15.59562,58.57372a.99994.99994,0,0,0,1.80953.85155l6.09506-12.95221V58.9995a1,1,0,1,0,2,0V47.05465l5.07507,12.3257a1.00013,1.00013,0,1,0,1.84956-.76171L25.99356,42.99979H39.9998a5.00578,5.00578,0,0,0,4.99988-4.9999V34.71058L55.766,40.77376a3.01341,3.01341,0,0,0,4.23324-2.728l0-16.09144A2.99766,2.99766,0,0,0,58.68146,19.47ZM27.00012,7.01414a1.01843,1.01843,0,0,1,1.02733-1.01365l9.9724.13622A1.01392,1.01392,0,0,1,37.98613,8.164H28.01377A1.03208,1.03208,0,0,1,27.00012,7.01414ZM42.99973,37.99989a3.00322,3.00322,0,0,1-2.99993,2.99994H9.00057a3.00321,3.00321,0,0,1-2.99992-2.99994V22.00019a3.00322,3.00322,0,0,1,2.99992-2.99995H39.9998a3.00322,3.00322,0,0,1,2.99993,2.99995Zm1.99995-10.41552,3.9999-2.25252v9.33637l-3.9999-2.25252ZM57.99935,38.04579A1.00493,1.00493,0,0,1,56.68,38.9935l-5.68051-3.19895v-11.589l5.68052-3.199a1.00517,1.00517,0,0,1,1.31929.94776Z"/><path d="M27.00012,28.00007H12.0005A3.00322,3.00322,0,0,0,9.00057,31v3.99992a3.00322,3.00322,0,0,0,2.99993,2.99995H27.00012a3.00322,3.00322,0,0,0,2.99993-2.99995V31A3.00322,3.00322,0,0,0,27.00012,28.00007Zm1,6.99987a1.00129,1.00129,0,0,1-1,1H12.0005a1.00129,1.00129,0,0,1-1-1V31a1.00128,1.00128,0,0,1,1-1H27.00012a1.00128,1.00128,0,0,1,1,1Z"/><path d="M36.99988,21.00021A3.00013,3.00013,0,0,0,37,27.00009,3.00013,3.00013,0,0,0,36.99988,21.00021Zm0,3.99992a1.00009,1.00009,0,0,1,0-2A1.00009,1.00009,0,0,1,36.99988,25.00013Z"/><path d="M38.99983,32c-5.99888.10141-4.8971-.99423-4.99987,4.99992a1,1,0,0,0,1,1h3.9999a1,1,0,0,0,1-1V33A1,1,0,0,0,38.99983,32Zm-1,3.99993h-2V34h2Z"/></svg>
