<svg id="Layer_1" enable-background="new 0 0 512 512" viewBox="0 0 512 512" xmlns="http://www.w3.org/2000/svg"><path d="m463.78 305.45-30.8-94.38v-3.26c0-51.29-20.11-99.65-56.63-136.17-36.52-36.53-84.89-56.64-136.18-56.64s-99.65 20.11-136.17 56.63-56.63 84.88-56.63 136.17v6.41c0 31.71 7.96 63.2 23.01 91.08 21.81 40.37 27.14 81.67 16.3 126.26l-14.1 58.02c-.43 1.79-.02 3.68 1.11 5.12s2.88 2.29 4.72 2.29h191.84c2.69 0 5.06-1.79 5.78-4.39l16.14-57.93h59.83c33.19 0 60.19-27 60.19-60.19v-47.15h35.71c5.49 0 10.3-2.45 13.52-6.89 3.23-4.43 4.06-9.76 2.36-14.98zm-12.07 7.95c-.95 1.3-2.19 1.94-3.8 1.94h-41.71c-3.31 0-6 2.69-6 6v53.15c0 26.57-21.62 48.19-48.19 48.19h-64.39c-2.69 0-5.06 1.79-5.78 4.39l-16.14 57.93h-179.66l12.3-50.61c11.57-47.6 5.88-91.69-17.4-134.8-14.11-26.13-21.57-55.65-21.57-85.38v-6.41c0-99.7 81.11-180.8 180.81-180.8s180.81 81.11 180.81 180.8v4.22c0 .63.1 1.26.3 1.86l31.1 95.29c.48 1.54.27 2.92-.68 4.23zm-210.2-252.85c-78.8 0-142.91 64.11-142.91 142.91s64.11 142.91 142.91 142.91 142.91-64.11 142.91-142.91-64.1-142.91-142.91-142.91zm-70.46 134.55 3.52-10.5h32.12l3.52 10.5c2.93 8.73 4.33 16.5 4.57 25.43-4.77 6.94-14.05 11.35-24.15 11.35-10.11 0-19.39-4.41-24.15-11.35.24-8.93 1.64-16.7 4.57-25.43zm7.54-22.5 9.81-29.26c.34-1.02 1.16-1.61 2.23-1.61s1.89.58 2.23 1.61l9.81 29.26zm18.04 70.89c6.73-.86 12.97-3.16 18.2-6.62v94.76c-6.24-1.3-12.32-3.04-18.2-5.19zm-30.21-6.61c5.24 3.46 11.47 5.76 18.2 6.62v77.86c-6.37-3.09-12.46-6.68-18.2-10.72zm104.27-.07v-28.38h39.31v28.38zm45.91-56.87c0 6.16-2.39 12.04-6.63 16.49h-39.25c-4.24-4.45-6.63-10.33-6.63-16.49v-1.95c0-11.2 12.83-23.8 23.15-33.93 1.06-1.04 2.1-2.06 3.11-3.07 1.01 1 2.05 2.02 3.11 3.07 10.31 10.13 23.15 22.73 23.15 33.93v1.95zm-36.63 68.87h20.75v71.39c-6.61 3.37-13.55 6.19-20.75 8.4zm32.75 64.45v-64.68c5.28-1.06 9.28-5.73 9.28-11.32v-29.28c0-1.99-.51-3.86-1.39-5.5 5.13-6.35 8-14.28 8-22.54v-1.95c0-16.23-14.83-30.79-26.74-42.49-2.6-2.56-5.06-4.97-7.15-7.19-1.13-1.21-2.72-1.89-4.37-1.89s-3.24.68-4.37 1.89c-2.08 2.22-4.54 4.63-7.15 7.19-11.91 11.7-26.74 26.26-26.74 42.49v1.95c0 8.26 2.87 16.19 8 22.54-.89 1.64-1.39 3.51-1.39 5.5v29.28c0 5.59 3.99 10.26 9.28 11.32v83.1c-8.55 1.76-17.4 2.69-26.46 2.69-4.96 0-9.86-.29-14.68-.83v-110.08c0-11.42-1.62-21.34-5.25-32.17l-17.35-51.76c-1.99-5.95-7.33-9.79-13.61-9.79-6.27 0-11.62 3.84-13.61 9.79l-17.35 51.76c-3.63 10.83-5.25 20.75-5.25 32.17v77.66c-26.87-23.99-43.83-58.88-43.83-97.65 0-72.19 58.73-130.91 130.91-130.91s130.91 58.73 130.91 130.91c.02 45.94-23.78 86.42-59.69 109.79z"/></svg>