<svg id="Layer_1" height="512" viewBox="0 0 512 512" width="512" xmlns="http://www.w3.org/2000/svg"><path d="m427.672 303.861h-328.244c-4.418 0-8 3.582-8 8v128.734c0 4.418 3.582 8 8 8h328.244c4.418 0 8-3.582 8-8v-128.734c0-4.418-3.582-8-8-8zm-320.244 43.768h73.521v57.2h-73.521zm268.564-16v-11.768h13.84v11.768zm-16 0h-13.842v-11.768h13.842zm-73.521 73.2v-57.2h73.521v57.2zm-89.522 0v-57.2h73.521v57.2zm133.201-73.2h-13.84v-11.768h13.84zm-29.839 0h-13.84v-11.768h13.84zm-29.84 0h-13.841v-11.768h13.841zm-29.841 0h-13.841v-11.768h13.841zm-29.841 0h-13.84v-11.768h13.84zm-29.84 0h-13.84v-11.768h13.84zm-29.84 0h-13.841v-11.768h13.841zm0 89.2v11.767h-13.841v-11.767zm16 0h13.84v11.767h-13.84zm29.84 0h13.84v11.767h-13.84zm29.84 0h13.841v11.767h-13.841zm29.841 0h13.841v11.767h-13.841zm29.841 0h13.84v11.767h-13.84zm29.84 0h13.84v11.767h-13.84zm29.839 0h13.842v11.767h-13.842zm29.842 0h13.84v11.767h-13.84zm0-16v-57.2h43.68v57.2zm43.68-73.2h-13.84v-11.768h13.84zm-298.403-11.768v11.768h-13.841v-11.768zm-13.841 100.968h13.841v11.767h-13.841zm298.404 11.767v-11.767h13.84v11.767zm67.846-274.494h-334.19l328.532-61.278c4.344-.81 7.207-4.988 6.398-9.331l-15.101-80.96c-.389-2.086-1.591-3.932-3.341-5.131-1.75-1.199-3.903-1.655-5.99-1.266l-413.131 77.055c-2.086.389-3.932 1.591-5.131 3.341-1.2 1.75-1.656 3.905-1.266 5.99l14.963 80.228v81.708c0 .006.001.013.001.02v255.522c0 4.418 3.581 8 8 8h420.255c4.418 0 8-3.582 8-8v-255.542-.001-82.355c.001-4.419-3.581-8-7.999-8zm-326.424-85.226 77.398 53.065-88.479 16.503-77.399-53.065zm110.725-20.652 77.398 53.065-88.48 16.503-77.398-53.065zm110.724-20.652 77.397 53.064-88.481 16.503-77.398-53.065zm-307.281 142.53h55.043l-55.043 55.042zm52.509-27.509-54.11 10.093-10.093-54.11zm25.161 27.509h90.006l-66.357 66.356h-90.005zm112.633 0h90.006l-66.357 66.356h-90.004zm112.632 0h90.006l-66.357 66.356h-90.004zm101.321 11.314v55.042h-55.043zm-10.532-113.976-64.201-44.017 54.11-10.092zm-393.723 424.56v-239.542h404.255v239.542z"/></svg>