<svg id="Layer_1" enable-background="new 0 0 500 500" viewBox="0 0 500 500" xmlns="http://www.w3.org/2000/svg"><path clip-rule="evenodd" d="m269.673 324.13c-12.27 0-23.964-4.548-33.067-12.813-2.765-2.547-2.938-6.859-.403-9.642 2.535-2.781 6.855-2.972 9.62-.437 13.504 12.329 34.251 12.331 47.698 0 2.765-2.536 7.086-2.344 9.62.437 2.592 2.784 2.362 7.095-.403 9.642-9.043 8.266-20.795 12.813-33.065 12.813zm6.048-58.178c0-9.831 7.95-17.827 17.8-17.827 9.851 0 17.858 7.995 17.858 17.827 0 3.765-3.053 6.821-6.855 6.821-3.744 0-6.798-3.056-6.798-6.821 0-5.464-8.353-5.55-8.353 0 0 3.765-3.111 6.821-6.855 6.821-3.743 0-6.797-3.056-6.797-6.821zm-40.901 6.821c-3.744 0-6.798-3.056-6.798-6.821 0-9.831 8.007-17.827 17.8-17.827 9.851 0 17.858 7.995 17.858 17.827 0 3.765-3.053 6.821-6.855 6.821-3.744 0-6.798-3.056-6.798-6.821 0-5.464-8.353-5.55-8.353 0 .002 3.765-3.051 6.821-6.854 6.821zm-42.168 76.205c3.917 0 7.201 4.44 7.201 9.688 0 5.245-3.283 9.685-7.201 9.685-3.917 0-7.201-4.44-7.201-9.685.001-5.248 3.284-9.688 7.201-9.688zm-20.853 9.687c0 12.858 9.332 23.326 20.854 23.326 11.464 0 20.854-10.469 20.854-23.326 0-12.869-9.39-23.328-20.854-23.328-11.522 0-20.854 10.459-20.854 23.328zm-2.996-30.714c-9.851 0-17.858-8.004-17.858-17.826 0-3.774 3.053-6.821 6.855-6.821 3.744 0 6.798 3.047 6.798 6.821 0 5.501 8.41 5.502 8.41 0 0-3.774 3.053-6.821 6.798-6.821 3.744 0 6.798 3.047 6.798 6.821 0 9.822-7.95 17.826-17.801 17.826zm292.643-40.308h-53.689c-5.357 0-9.735-4.348-9.735-9.686 0-5.34 4.378-9.687 9.735-9.687h53.689zm-15.727 131.183v-117.54h15.727v117.541h-15.727zm-25.75-117.54h12.098v117.541h-30.359c.115-47.247 1.67-77.907 18.261-117.541zm-295.926 117.54 29.495-24.429c10.715 8.749 23.734 14.816 38.078 17.007h2.074c14.863-2.273 28.573-8.821 39.749-18.407h111.296l31.223 25.829zm-56.167 0v-117.54h12.097c16.649 39.634 18.146 70.294 18.261 117.541h-30.358zm-29.322-117.54h15.669v117.541h-15.669zm0-33.016h53.689c5.357 0 9.678 4.347 9.678 9.687 0 5.338-4.321 9.686-9.678 9.686h-53.689zm40.555-187.098h53.344c-3.745 65.055-25.347 121.899-65.902 173.457h-14.517c27.997-58.953 27.767-112.376 27.075-173.457zm354.34 173.457c-40.555-51.558-62.158-108.402-65.96-173.457h53.344c-.781 64.373-.255 115.672 27.075 173.457zm-25.693 0h8.526c-38.143-51.645-58.898-109.28-62.446-173.457h-30.359c.922 73.813 29.034 132.131 83.587 173.475.231-.009.462-.018.692-.018zm-315.512 0c.23 0 .461.009.691.018 54.496-41.344 82.608-99.662 83.53-173.475h-30.301c-3.669 64.301-24.222 121.703-62.446 173.457zm122.357 33.814c0 31.986 23.619 59.808 55.072 65.145 31.453-5.337 55.072-33.16 55.072-65.145v-56.97c-34.681 13.945-75.41 13.919-110.144 0zm-77.021 44.164c0 31.996 23.619 59.808 55.072 65.147 22.121-3.758 41.074-18.909 49.83-39.472-24.829-13.743-41.534-40.318-41.534-69.839v-2.583c-21.721 1.217-43.815-2.349-63.367-10.214v56.961zm267.757-31.449c-20.146-2.072-28.197-27.286-13.019-40.716-53.862-43.684-81.571-103.908-82.493-179.27h-119.707c-.864 75.361-28.631 135.585-82.493 179.27 15.338 13.573 7.06 38.657-12.962 40.716 15.324 39.053 17.052 71.794 17.225 110.011l31.799-26.321c-12.328-14.141-19.759-32.532-19.759-52.24v-67.492c0-5.126 5.399-8.341 9.851-6.103 19.932 10.022 43.975 14.559 67.17 13.178v-51.241c0-4.961 5.318-8.381 9.908-6.109 35.894 17.767 81.798 18.057 117.691 0 4.46-2.244 9.851 1.001 9.851 6.109v67.494c0 39.018-29.092 72.886-67.688 78.797-3.233.501-12.89-2.405-15.784-3.402-2.362 5.529-5.357 10.722-8.872 15.516h101.158c1.555 0 3.111.556 4.32 1.564l36.58 30.25c.172-38.217 1.843-70.958 17.224-110.011zm62.906-46.529h-5.127c-29.171-57.16-29.355-108.254-28.63-173.457h20.854c3.744 0 6.798-3.047 6.798-6.821 0-3.765-3.053-6.821-6.798-6.821h-410.737c-3.744 0-6.798 3.056-6.798 6.821 0 3.774 3.053 6.821 6.798 6.821h20.911c.691 63.927.922 114.986-28.63 173.457h-5.185c-3.744 0-6.798 3.056-6.798 6.82v164.198c0 3.767 3.053 6.823 6.798 6.823h436.545c3.802 0 6.855-3.056 6.855-6.823v-164.198c0-3.764-3.054-6.82-6.856-6.82z" fill-rule="evenodd"/></svg>